<svg xmlns="http://www.w3.org/2000/svg" width="20" height="20" viewBox="0 0 20 20">
  <g id="Group_42745" data-name="Group 42745" transform="translate(-820.026 -605.812)">
    <g id="Group_615" data-name="Group 615" transform="translate(820.026 605.812)">
      <path id="Path_61" data-name="Path 61" d="M830.026,625.812a10,10,0,1,1,10-10A10.011,10.011,0,0,1,830.026,625.812Zm0-18.823a8.823,8.823,0,1,0,8.823,8.823A8.835,8.835,0,0,0,830.026,606.989Z" transform="translate(-820.026 -605.812)" fill="#1581ff"/>
    </g>
    <g id="Group_616" data-name="Group 616" transform="translate(826.221 609.679)">
      <path id="Path_62" data-name="Path 62" d="M831.419,611.3a2.935,2.935,0,0,1-.505,1.67,7.874,7.874,0,0,1-1.263,1.344,5.064,5.064,0,0,0-1.1,1.18,3.829,3.829,0,0,0-.262,1.657H826.9a5.219,5.219,0,0,1,.375-2.245,5.869,5.869,0,0,1,1.461-1.64,5.6,5.6,0,0,0,.818-.851,1.766,1.766,0,0,0,.328-1.018,1.947,1.947,0,0,0-.639-1.441,2.184,2.184,0,0,0-1.59-.623,2.062,2.062,0,0,0-1.588.654,3.219,3.219,0,0,0-.723,1.689l-1.493-.164c.036-.317.067-.547.1-.688a2.542,2.542,0,0,1,.2-.591,3.2,3.2,0,0,1,1.719-1.8,4.393,4.393,0,0,1,1.768-.343,4.058,4.058,0,0,1,2.722.918A2.873,2.873,0,0,1,831.419,611.3Zm-2.965,8.718H826.8v-1.673h1.655Z" transform="translate(-823.848 -608.084)" fill="#1581ff"/>
    </g>
  </g>
</svg>
